<?xml version="1.0" encoding="UTF-8" standalone="no"?>
<svg
   width="64"
   height="64"
   viewBox="0 0 64 64"
   version="1.1"
   id="svg7"
   sodipodi:docname="schematics-favicon.svg"
   inkscape:version="1.4 (86a8ad7, 2024-10-11)"
   xmlns:inkscape="http://www.inkscape.org/namespaces/inkscape"
   xmlns:sodipodi="http://sodipodi.sourceforge.net/DTD/sodipodi-0.dtd"
   xmlns="http://www.w3.org/2000/svg"
   xmlns:svg="http://www.w3.org/2000/svg">
  <sodipodi:namedview
     id="namedview7"
     pagecolor="#ffffff"
     bordercolor="#000000"
     borderopacity="0.25"
     inkscape:showpageshadow="2"
     inkscape:pageopacity="0.0"
     inkscape:pagecheckerboard="0"
     inkscape:deskcolor="#d1d1d1"
     inkscape:zoom="12.953125"
     inkscape:cx="32.077201"
     inkscape:cy="32.077201"
     inkscape:window-width="1920"
     inkscape:window-height="1009"
     inkscape:window-x="1912"
     inkscape:window-y="776"
     inkscape:window-maximized="1"
     inkscape:current-layer="svg7" />
  <defs
     id="defs2">
    <linearGradient
       id="bg"
       x1="0"
       y1="0"
       x2="1"
       y2="1">
      <stop
         offset="0%"
         stop-color="#0ea5e9"
         id="stop1" />
      <stop
         offset="100%"
         stop-color="#6366f1"
         id="stop2" />
    </linearGradient>
    <filter
       id="soft"
       x="0"
       y="0"
       width="1"
       height="1">
      <feDropShadow
         dx="0"
         dy="1"
         stdDeviation="1.5"
         flood-color="rgba(0,0,0,0.35)" />
    </filter>
  </defs>
  <!-- rounded gradient background -->
  <rect
     x="2"
     y="2"
     width="60"
     height="60"
     rx="12"
     fill="url(#bg)"
     id="rect2" />
  <!-- grid (subtle) -->
  <g
     opacity="0.18"
     stroke="#fff"
     id="g4">
    <!-- vertical lines every 8px -->
    <g
       id="g2">
      <path
         d="M10 6v52 M18 6v52 M26 6v52 M34 6v52 M42 6v52 M50 6v52"
         stroke-width="1"
         id="path2" />
    </g>
    <!-- horizontal lines every 8px -->
    <g
       id="g3">
      <path
         d="M6 10h52 M6 18h52 M6 26h52 M6 34h52 M6 42h52 M6 50h52"
         stroke-width="1"
         id="path3" />
    </g>
  </g>
  <!-- wire path -->
  <path
     d="m 8.6014035,38.443229 8.4354885,0.0772 0.131736,-13.484769 14.252361,-0.0772 14.421241,-0.154401 0.131735,13.56197 8.281086,0.0772"
     fill="none"
     stroke="#ffffff"
     stroke-width="4.38616"
     stroke-linecap="round"
     stroke-linejoin="round"
     id="path4"
     sodipodi:nodetypes="ccccccc" />
  <!-- junctions -->
  <g
     id="g6"
     transform="translate(-12.583836,-0.61761158)">
    <circle
       cx="22.154404"
       cy="39.136311"
       r="3"
       fill="#fbbf24"
       stroke="#ffffff"
       stroke-width="1"
       id="circle4" />
    <circle
       cx="66.950546"
       cy="39.059109"
       r="3"
       fill="#fbbf24"
       stroke="#ffffff"
       stroke-width="1"
       id="circle6" />
  </g>
  <!-- resistor symbol in series -->
  <path
     d="m 22.448733,25.3462 3,-6 4,12 4,-12 4,12 4,-12"
     fill="none"
     stroke="#ffffff"
     stroke-width="3"
     stroke-linejoin="round"
     stroke-linecap="round"
     id="path6"
     sodipodi:nodetypes="cccccc" />
  <!-- cursor arrow (suggests 'online/editor') -->
</svg>
